G75*
%MOIN*%
%OFA0B0*%
%FSLAX25Y25*%
%IPPOS*%
%LPD*%
%AMOC8*
5,1,8,0,0,1.08239X$1,22.5*
%
%ADD10R,0.04331X0.03937*%
%ADD11C,0.06000*%
%ADD12R,0.02362X0.04724*%
%ADD13R,0.04331X0.07480*%
%ADD14R,0.05118X0.05906*%
%ADD15C,0.01200*%
%ADD16C,0.01000*%
%ADD17C,0.01600*%
D10*
X0034016Y0015056D03*
X0040709Y0015056D03*
X0040709Y0023556D03*
X0034016Y0023556D03*
X0059516Y0038056D03*
X0066209Y0038056D03*
X0056709Y0069556D03*
X0050016Y0069556D03*
X0044709Y0069556D03*
X0038016Y0069556D03*
D11*
X0015362Y0065056D03*
X0015362Y0055056D03*
X0015362Y0045056D03*
X0015362Y0035056D03*
X0015362Y0025056D03*
X0015362Y0015056D03*
D12*
X0034862Y0031033D03*
X0039862Y0031033D03*
X0044862Y0031033D03*
X0049862Y0031033D03*
X0049862Y0053080D03*
X0044862Y0053080D03*
X0039862Y0053080D03*
X0034862Y0053080D03*
D13*
X0042441Y0061556D03*
X0052284Y0061556D03*
D14*
X0059122Y0047056D03*
X0066603Y0047056D03*
D15*
X0052284Y0061556D02*
X0052284Y0067288D01*
X0050016Y0069556D01*
X0044709Y0069556D02*
X0042441Y0067288D01*
X0042441Y0061556D01*
X0044862Y0059135D01*
X0044862Y0053080D01*
X0049862Y0053080D02*
X0049862Y0059135D01*
X0052284Y0061556D01*
X0038016Y0069556D02*
X0034862Y0066403D01*
X0034862Y0053080D01*
X0040709Y0023556D02*
X0040709Y0015056D01*
D16*
X0017064Y0007556D02*
X0011262Y0013358D01*
X0011262Y0046754D01*
X0015362Y0050854D01*
X0015362Y0055056D01*
X0033862Y0056556D02*
X0033862Y0072056D01*
X0035862Y0074056D01*
X0058862Y0074056D01*
X0059862Y0073056D01*
X0059862Y0057556D01*
X0058862Y0056556D01*
X0051562Y0056556D01*
X0053862Y0056556D01*
X0053862Y0049556D01*
X0052862Y0048556D01*
X0042362Y0048556D01*
X0041862Y0049056D01*
X0041862Y0049981D01*
X0042144Y0050262D01*
X0042144Y0055898D01*
X0041862Y0056179D01*
X0041862Y0056556D01*
X0043162Y0056556D01*
X0043162Y0056479D01*
X0042581Y0055898D01*
X0042581Y0050262D01*
X0043226Y0049618D01*
X0046499Y0049618D01*
X0046938Y0050056D01*
X0047787Y0050056D01*
X0048226Y0049618D01*
X0051499Y0049618D01*
X0052144Y0050262D01*
X0052144Y0055898D01*
X0051562Y0056479D01*
X0051562Y0056556D01*
X0051562Y0056716D01*
X0054905Y0056716D01*
X0055549Y0057360D01*
X0055549Y0065752D01*
X0054905Y0066396D01*
X0053984Y0066396D01*
X0053984Y0067993D01*
X0053281Y0068695D01*
X0053281Y0071980D01*
X0052637Y0072625D01*
X0047395Y0072625D01*
X0047362Y0072592D01*
X0047330Y0072625D01*
X0042088Y0072625D01*
X0041444Y0071980D01*
X0041444Y0068695D01*
X0040741Y0067993D01*
X0040741Y0066396D01*
X0039820Y0066396D01*
X0039176Y0065752D01*
X0039176Y0057360D01*
X0039820Y0056716D01*
X0043162Y0056716D01*
X0043162Y0056556D01*
X0033862Y0056556D01*
X0033862Y0056973D02*
X0039563Y0056973D01*
X0039176Y0057971D02*
X0033862Y0057971D01*
X0033862Y0058970D02*
X0039176Y0058970D01*
X0039176Y0059968D02*
X0033862Y0059968D01*
X0033862Y0060967D02*
X0039176Y0060967D01*
X0039176Y0061965D02*
X0033862Y0061965D01*
X0033862Y0062964D02*
X0039176Y0062964D01*
X0039176Y0063962D02*
X0033862Y0063962D01*
X0033862Y0064961D02*
X0039176Y0064961D01*
X0039383Y0065959D02*
X0033862Y0065959D01*
X0033862Y0066958D02*
X0040741Y0066958D01*
X0040741Y0067956D02*
X0033862Y0067956D01*
X0033862Y0068955D02*
X0041444Y0068955D01*
X0041444Y0069953D02*
X0033862Y0069953D01*
X0033862Y0070952D02*
X0041444Y0070952D01*
X0041444Y0071950D02*
X0033862Y0071950D01*
X0034755Y0072949D02*
X0059862Y0072949D01*
X0059862Y0071950D02*
X0053281Y0071950D01*
X0053281Y0070952D02*
X0059862Y0070952D01*
X0059862Y0069953D02*
X0053281Y0069953D01*
X0053281Y0068955D02*
X0059862Y0068955D01*
X0059862Y0067956D02*
X0053984Y0067956D01*
X0053984Y0066958D02*
X0059862Y0066958D01*
X0059862Y0065959D02*
X0055342Y0065959D01*
X0055549Y0064961D02*
X0059862Y0064961D01*
X0059862Y0063962D02*
X0055549Y0063962D01*
X0055549Y0062964D02*
X0059862Y0062964D01*
X0059862Y0061965D02*
X0055549Y0061965D01*
X0055549Y0060967D02*
X0059862Y0060967D01*
X0059862Y0059968D02*
X0055549Y0059968D01*
X0055549Y0058970D02*
X0059862Y0058970D01*
X0059862Y0057971D02*
X0055549Y0057971D01*
X0055162Y0056973D02*
X0059279Y0056973D01*
X0053862Y0055974D02*
X0052067Y0055974D01*
X0052144Y0054976D02*
X0053862Y0054976D01*
X0053862Y0053977D02*
X0052144Y0053977D01*
X0052144Y0052979D02*
X0053862Y0052979D01*
X0053862Y0051980D02*
X0052144Y0051980D01*
X0052144Y0050982D02*
X0053862Y0050982D01*
X0053862Y0049983D02*
X0051865Y0049983D01*
X0053291Y0048985D02*
X0041934Y0048985D01*
X0041865Y0049983D02*
X0042860Y0049983D01*
X0042581Y0050982D02*
X0042144Y0050982D01*
X0042144Y0051980D02*
X0042581Y0051980D01*
X0042581Y0052979D02*
X0042144Y0052979D01*
X0042144Y0053977D02*
X0042581Y0053977D01*
X0042581Y0054976D02*
X0042144Y0054976D01*
X0042067Y0055974D02*
X0042658Y0055974D01*
X0046865Y0049983D02*
X0047860Y0049983D01*
X0042362Y0035056D02*
X0042144Y0034837D01*
X0042144Y0028215D01*
X0040709Y0026780D01*
X0040709Y0023556D01*
X0037362Y0028533D02*
X0037362Y0018403D01*
X0034016Y0015056D01*
X0015362Y0015056D01*
X0017064Y0007556D02*
X0041362Y0007556D01*
X0044862Y0011056D01*
X0044862Y0031033D01*
X0039862Y0031033D02*
X0037362Y0028533D01*
X0034862Y0031033D02*
X0034862Y0024403D01*
X0034016Y0023556D01*
X0016862Y0023556D01*
X0015362Y0025056D01*
X0035754Y0073947D02*
X0058971Y0073947D01*
D17*
X0056709Y0069556D02*
X0061362Y0069556D01*
X0063862Y0067056D01*
X0063862Y0057056D01*
X0059122Y0052316D01*
X0059122Y0047056D01*
X0059122Y0042056D01*
X0029362Y0042056D01*
X0026362Y0045056D01*
X0015362Y0045056D01*
X0015362Y0035056D02*
X0042362Y0035056D01*
X0048862Y0035056D01*
X0049886Y0034033D01*
X0049886Y0031056D01*
X0059209Y0031056D01*
X0066209Y0038056D01*
X0066209Y0046662D01*
X0066603Y0047056D01*
X0059122Y0042056D02*
X0059122Y0038450D01*
X0059516Y0038056D01*
X0049886Y0031056D02*
X0049862Y0031033D01*
X0037862Y0048056D02*
X0032362Y0048056D01*
X0015362Y0065056D01*
X0037862Y0048056D02*
X0039862Y0050056D01*
X0039862Y0053080D01*
M02*
